<svg width="506" height="506" viewBox="0 0 506 506" fill="none" xmlns="http://www.w3.org/2000/svg">
<g filter="url(#filter0_i_2003_266)">
<rect width="506" height="506" rx="97" fill="url(#paint0_radial_2003_266)"/>
</g>
<path fill-rule="evenodd" clip-rule="evenodd" d="M252.561 110L210.87 151.692L151.78 151.692V210.655L110 252.436L151.693 294.13V353.217H210.653L252.436 395L294.129 353.307H353.217V294.346L395 252.563L353.303 210.865V151.781L294.342 151.781L252.561 110ZM335.437 286.73L324.312 297.854L335.437 308.979V335.349H308.764L297.727 324.312L286.69 335.349H271.208V350.831L252.31 369.729L233.703 351.121V335.259H217.84L207.019 324.437L196.198 335.259H169.474V308.942L180.688 297.728L169.474 286.514V271.207H154.167L135.271 252.311L153.879 233.702H169.738V217.843L180.562 207.019L169.738 196.195V169.472H196.054L207.145 180.563L218.235 169.472H233.79V153.917L252.436 135.271L271.293 154.129V169.562H286.726L297.853 180.688L308.979 169.562H335.345V196.239L324.438 207.146L335.345 218.053V233.791H351.083L369.729 252.437L350.87 271.297H335.437V286.73Z" fill="url(#paint1_radial_2003_266)"/>
<path fill-rule="evenodd" clip-rule="evenodd" d="M195.016 194.971L195.016 228.627L171.174 252.468L194.971 276.265L194.97 309.984L228.626 309.983L252.468 333.826L276.265 310.029L309.984 310.029L309.984 276.37L333.824 252.53L310.027 228.733L310.028 195.015L276.373 195.015L252.531 171.173L228.733 194.971L195.016 194.971ZM254.773 218.156L266.788 218.156L275.239 226.606L283.69 218.156L286.798 218.156L286.798 221.414L278.391 229.821L286.798 238.229L286.798 250.27L298.84 250.27L301.036 252.467L298.73 254.774L286.844 254.774L286.844 266.66L278.328 275.176L286.843 283.691L286.843 286.8L283.584 286.8L275.176 278.392L266.769 286.8L254.729 286.8L254.729 298.84L252.531 301.038L250.225 298.732L250.225 286.754L238.247 286.754L229.822 278.329L221.397 286.755L218.111 286.755L218.111 283.673L226.67 275.114L218.111 266.554L218.111 254.729L206.285 254.729L203.962 252.405L206.141 250.226L218.244 250.226L218.245 238.123L226.608 229.76L218.245 221.397L218.245 218.111L221.327 218.111L229.885 226.669L238.443 218.111L250.27 218.111L250.27 206.284L252.594 203.961L254.773 206.14L254.773 218.156Z" fill="url(#paint2_radial_2003_266)"/>
<defs>
<filter id="filter0_i_2003_266" x="0" y="0" width="506" height="507" filterUnits="userSpaceOnUse" color-interpolation-filters="sRGB">
<feFlood flood-opacity="0" result="BackgroundImageFix"/>
<feBlend mode="normal" in="SourceGraphic" in2="BackgroundImageFix" result="shape"/>
<feColorMatrix in="SourceAlpha" type="matrix" values="0 0 0 0 0 0 0 0 0 0 0 0 0 0 0 0 0 0 127 0" result="hardAlpha"/>
<feOffset dy="1"/>
<feGaussianBlur stdDeviation="0.5"/>
<feComposite in2="hardAlpha" operator="arithmetic" k2="-1" k3="1"/>
<feColorMatrix type="matrix" values="0 0 0 0 0.182173 0 0 0 0 0.316573 0 0 0 0 0.503564 0 0 0 1 0"/>
<feBlend mode="normal" in2="shape" result="effect1_innerShadow_2003_266"/>
</filter>
<radialGradient id="paint0_radial_2003_266" cx="0" cy="0" r="1" gradientUnits="userSpaceOnUse" gradientTransform="translate(253 -425.673) rotate(90) scale(931.673 932.193)">
<stop stop-color="#103562"/>
<stop offset="1" stop-color="#061125"/>
</radialGradient>
<radialGradient id="paint1_radial_2003_266" cx="0" cy="0" r="1" gradientUnits="userSpaceOnUse" gradientTransform="translate(252.5 110) rotate(90) scale(285)">
<stop offset="0.19" stop-color="#D6B87C"/>
<stop offset="1" stop-color="#D6B87C" stop-opacity="0.33"/>
</radialGradient>
<radialGradient id="paint2_radial_2003_266" cx="0" cy="0" r="1" gradientUnits="userSpaceOnUse" gradientTransform="translate(252.499 171.173) rotate(90) scale(162.653 162.65)">
<stop stop-color="#D6B87C"/>
<stop offset="1" stop-color="#D6B87C" stop-opacity="0.33"/>
</radialGradient>
</defs>
</svg>
