<svg width="135" height="126" viewBox="0 0 135 126" fill="none" xmlns="http://www.w3.org/2000/svg">
<path d="M69.125 71C60.8333 71 55.875 71.0417 54.25 71.125C45.1667 71.625 40.625 72.8958 40.625 74.9375C40.625 75.7292 43.0625 76.8958 47.9375 78.4375C52.8542 80.0208 55.6042 80.6667 56.1875 80.375L54.1875 92.625C53.9375 93.9583 50.6875 96.3958 44.4375 99.9375C36.8958 104.188 29.6875 106.312 22.8125 106.312C16.8958 106.312 11.7917 104.812 7.5 101.812C2.66667 98.4375 0.25 93.9167 0.25 88.25C0.25 83.2917 1.70833 77.625 4.625 71.25C7.20833 65.5833 8.875 62.8542 9.625 63.0625L9.75 63.4375C8.70833 66.5208 7.66667 69.6042 6.625 72.6875C5.54167 76.3542 5 79.5417 5 82.25C5 90.7917 10.5833 95.0625 21.75 95.0625C24.5417 95.0625 28.7917 94.5 34.5 93.375C41.2083 92 44.5625 90.6458 44.5625 89.3125C44.5625 88.7708 42.7708 87.8125 39.1875 86.4375C35.6042 85.0625 33.7708 84.0208 33.6875 83.3125C33.6042 82.8542 33.5625 82.0625 33.5625 80.9375C33.5625 68.1875 42.4792 61.8125 60.3125 61.8125H69.125V71ZM23.625 118.625L19.6875 125.125L9.625 119.375L13.6875 112.75L23.625 118.625ZM23.9375 118.625L27.9375 112.125L37.9375 117.75L34 124.5L23.9375 118.625ZM93.875 71H60.625V61.8125H77.875V11.625L85.3125 0.0625V61.8125H93.875V71ZM134.625 60.625L130.938 69.5625C118.646 70.5208 112.5 71 112.5 71H85.375V61.8125H97.625C94.75 57.9375 93.3125 54.8542 93.3125 52.5625C93.3125 48.7292 96.9375 43.9583 104.188 38.25C106.146 36.7083 108.438 35.9375 111.062 35.9375C114.729 35.9375 117.875 37.3542 120.5 40.1875C122.917 42.7708 124.438 45.9583 125.062 49.75C124.021 48.5 122.188 47.4375 119.562 46.5625C117.188 45.7708 115.042 45.375 113.125 45.375C107.792 45.375 104 47.6875 101.75 52.3125L101.688 52.5625C101.688 53.8542 103.125 55.7708 106 58.3125C108.917 60.8125 111.125 62.0208 112.625 61.9375L134.625 60.625Z" fill="#765F00"/>
</svg>
