<svg width="542" height="56" viewBox="0 0 542 56" fill="none" xmlns="http://www.w3.org/2000/svg">
<path fill-rule="evenodd" clip-rule="evenodd" d="M27.5741 0.4375L19.5102 8.50149L8.08113 8.50149V19.9062L0 27.9874L8.06429 36.0518V47.4803H19.4683L27.5498 55.562L35.614 47.4977H47.0429V36.0935L55.1245 28.0119L47.0594 19.9468V8.51882L35.6553 8.51881L27.5741 0.4375ZM43.6039 34.6204L41.4522 36.7722L43.6039 38.9239V44.0243H38.4447L36.31 41.8895L34.1753 44.0243H31.1807V47.0189L27.5255 50.6741L23.9265 47.075V44.0069H20.8584L18.7653 41.9138L16.6723 44.0069H11.5033V38.9167L13.6723 36.7477L11.5033 34.5787V31.618H8.54273L4.88784 27.9631L8.48712 24.3638H11.5545V21.2964L13.648 19.2028L11.5545 17.1093V11.9406H16.6446L18.7896 14.0857L20.9347 11.9406H23.9433V8.93192L27.5498 5.32539L31.1972 8.97286V11.9579H34.1823L36.3343 14.1099L38.4863 11.9579H43.586V17.1177L41.4764 19.2273L43.586 21.3369V24.3811H46.6302L50.2366 27.9876L46.5889 31.6354H43.6039V34.6204Z" fill="white"/>
<path fill-rule="evenodd" clip-rule="evenodd" d="M16.4435 16.8726L16.4435 23.3822L11.832 27.9936L16.4348 32.5964L16.4347 39.1182L22.9443 39.1182L27.5559 43.7297L32.1587 39.1269L38.6805 39.1269L38.6805 32.6167L43.2918 28.0055L38.689 23.4027L38.689 16.8811L32.1796 16.8811L27.568 12.2695L22.965 16.8725L16.4435 16.8726ZM28.0016 21.3569L30.3257 21.3569L31.9603 22.9914L33.5948 21.3569L34.1961 21.3569L34.196 21.9871L32.5698 23.6133L34.196 25.2395L34.196 27.5685L36.525 27.5685L36.9499 27.9934L36.5038 28.4395L34.2048 28.4396L34.2048 30.7385L32.5577 32.3857L34.2048 34.0328L34.2048 34.634L33.5743 34.634L31.9481 33.0078L30.3219 34.634L27.9932 34.634L27.9932 36.9628L27.568 37.3879L27.1221 36.942L27.1221 34.6252L24.8053 34.6252L23.1758 32.9957L21.5462 34.6252L20.9105 34.6253L20.9105 34.0293L22.5661 32.3737L20.9105 30.7182L20.9105 28.4308L18.6232 28.4309L18.1739 27.9815L18.5954 27.5599L20.9364 27.5599L20.9364 25.2189L22.554 23.6013L20.9364 21.9838L20.9364 21.3483L21.5326 21.3483L23.1879 23.0036L24.8432 21.3483L27.1308 21.3483L27.1308 19.0607L27.5802 18.6114L28.0016 19.0328L28.0016 21.3569Z" fill="white"/>
<path d="M74.4057 41.78C74.3175 41.78 74.2734 41.6918 74.2734 41.5154C74.2734 41.339 74.3175 41.2508 74.4057 41.2508C75.3465 41.2508 76.0374 41.1773 76.4784 41.0303C76.9194 40.8833 77.2134 40.604 77.3604 40.1924C77.5368 39.7514 77.625 39.0899 77.625 38.2079V17.7898C77.625 16.9078 77.5368 16.261 77.3604 15.8494C77.184 15.4378 76.8753 15.1585 76.4343 15.0115C75.9933 14.8351 75.3171 14.7469 74.4057 14.7469C74.3175 14.7469 74.2734 14.6587 74.2734 14.4823C74.2734 14.3059 74.3175 14.2177 74.4057 14.2177L76.4784 14.2618C77.7132 14.3206 78.7275 14.35 79.5213 14.35C80.0799 14.35 80.6973 14.3353 81.3735 14.3059C82.0791 14.2471 82.5936 14.2177 82.917 14.2177C83.7989 14.1295 84.6221 14.0854 85.3865 14.0854C88.3559 14.0854 90.7961 14.7175 92.7071 15.9817C94.618 17.2165 95.5735 19.0246 95.5735 21.406C95.5735 23.3463 95.0296 24.978 93.9419 26.301C92.8835 27.624 91.5605 28.6089 89.9729 29.2557C88.3853 29.9025 86.8124 30.2259 85.2542 30.2259C84.4016 30.2259 83.7107 30.1524 83.1816 30.0054C83.1228 30.0054 83.0934 29.9025 83.0934 29.6967C83.0934 29.5791 83.1081 29.4615 83.1375 29.3439C83.1963 29.2263 83.2404 29.1822 83.2698 29.2116C83.7107 29.3292 84.1958 29.388 84.725 29.388C86.489 29.388 87.9737 28.7853 89.1791 27.5799C90.4139 26.3745 91.0313 24.6105 91.0313 22.288C91.0313 20.7886 90.7226 19.4803 90.1052 18.3631C89.5172 17.2459 88.7234 16.3933 87.7238 15.8053C86.7242 15.2173 85.6805 14.9233 84.5927 14.9233C83.7695 14.9233 83.1522 14.9968 82.7406 15.1438C82.3584 15.2908 82.0938 15.5701 81.9468 15.9817C81.7998 16.3639 81.7116 16.996 81.6822 17.878L81.7263 38.2079C81.7263 39.0899 81.7998 39.7514 81.9468 40.1924C82.1232 40.604 82.4172 40.8833 82.8288 41.0303C83.2698 41.1773 83.9459 41.2508 84.8573 41.2508C84.9455 41.2508 84.9896 41.339 84.9896 41.5154C85.019 41.6918 84.9749 41.78 84.8573 41.78C83.9459 41.78 83.2404 41.7653 82.7406 41.7359L79.6095 41.6918L76.5666 41.7359C76.0374 41.7653 75.3171 41.78 74.4057 41.78Z" fill="white"/>
<path d="M123.598 34.9004C123.657 34.8416 123.73 34.8122 123.818 34.8122C123.906 34.8122 123.995 34.8416 124.083 34.9004C124.171 34.9298 124.2 34.9592 124.171 34.9886C123.877 36.8408 123.73 38.8841 123.73 41.1185C123.73 41.3537 123.686 41.5301 123.598 41.6477C123.51 41.7359 123.333 41.78 123.069 41.78H103.091C102.974 41.78 102.915 41.6918 102.915 41.5154C102.915 41.339 102.959 41.2508 103.047 41.2508C103.988 41.2508 104.664 41.1773 105.076 41.0303C105.517 40.8833 105.811 40.604 105.958 40.1924C106.105 39.7808 106.178 39.1193 106.178 38.2079V17.7898C106.149 16.9078 106.046 16.261 105.87 15.8494C105.723 15.4378 105.429 15.1585 104.988 15.0115C104.576 14.8351 103.929 14.7469 103.047 14.7469C102.959 14.7469 102.9 14.6587 102.871 14.4823C102.871 14.3059 102.9 14.2177 102.959 14.2177H121.834C122.069 14.2177 122.187 14.35 122.187 14.6146L122.275 20.3035C122.275 20.4211 122.187 20.4799 122.01 20.4799C121.863 20.4799 121.775 20.4358 121.746 20.3476C121.393 18.7306 120.628 17.4517 119.452 16.5109C118.306 15.5407 116.924 15.0556 115.307 15.0556H113.367C112.426 15.0556 111.75 15.1291 111.338 15.2761C110.926 15.3937 110.647 15.6436 110.5 16.0258C110.383 16.3786 110.309 16.9813 110.28 17.8339V26.8743H116.233C117.644 26.8743 118.673 26.6244 119.32 26.1246C119.967 25.6248 120.29 24.7869 120.29 23.6109C120.29 23.4933 120.379 23.4345 120.555 23.4345C120.79 23.4345 120.893 23.508 120.864 23.655C120.893 24.1842 120.893 24.6987 120.864 25.1985C120.864 25.6689 120.864 26.007 120.864 26.2128C120.834 26.4774 120.82 26.889 120.82 27.4476C120.82 28.359 120.834 29.0499 120.864 29.5203L120.908 31.8135C120.908 31.9605 120.82 32.034 120.643 32.034C120.584 32.034 120.511 32.0193 120.423 31.9899C120.364 31.9311 120.334 31.8723 120.334 31.8135C120.334 29.2851 118.923 28.0209 116.101 28.0209H110.28V38.0315C110.28 38.8547 110.353 39.4721 110.5 39.8837C110.677 40.2659 110.971 40.5305 111.382 40.6775C111.794 40.8245 112.441 40.898 113.323 40.898H115.924C117.6 40.898 119.129 40.3541 120.511 39.2663C121.893 38.1785 122.922 36.7232 123.598 34.9004Z" fill="white"/>
<path d="M158.278 41.2508C158.366 41.2508 158.41 41.339 158.41 41.5154C158.41 41.6918 158.366 41.78 158.278 41.78C157.749 41.78 156.955 41.7506 155.897 41.6918C154.662 41.633 153.692 41.6036 152.986 41.6036C152.28 41.6036 151.369 41.633 150.252 41.6918C149.252 41.7506 148.488 41.78 147.959 41.78C147.841 41.78 147.782 41.6918 147.782 41.5154C147.782 41.339 147.841 41.2508 147.959 41.2508C148.899 41.2508 149.561 41.1626 149.943 40.9862C150.355 40.7804 150.561 40.4276 150.561 39.9278C150.561 39.5162 150.399 38.8988 150.075 38.0756L146.151 28.2414H139.095L135.875 36.047C135.405 37.1936 135.17 38.1344 135.17 38.8694C135.17 39.722 135.478 40.3394 136.096 40.7216C136.743 41.0744 137.728 41.2508 139.051 41.2508C139.168 41.2508 139.227 41.339 139.227 41.5154C139.227 41.6918 139.153 41.78 139.006 41.78C138.624 41.78 137.845 41.7506 136.669 41.6918C135.258 41.633 134.185 41.6036 133.45 41.6036C132.744 41.6036 131.921 41.633 130.98 41.6918C130.157 41.7506 129.481 41.78 128.952 41.78C128.834 41.78 128.775 41.6918 128.775 41.5154C128.775 41.339 128.834 41.2508 128.952 41.2508C129.834 41.2508 130.775 40.8098 131.774 39.9278C132.803 39.0164 133.7 37.6934 134.464 35.9588L143.857 13.8208C143.857 13.7326 143.975 13.6885 144.21 13.6885C144.475 13.6885 144.651 13.7473 144.739 13.8649L154.309 38.0756C154.691 39.0164 155 39.6926 155.235 40.1042C155.5 40.4864 155.852 40.7804 156.293 40.9862C156.734 41.1626 157.396 41.2508 158.278 41.2508ZM139.536 27.1389H145.71L142.667 19.4656L139.536 27.1389Z" fill="white"/>
<path d="M190.839 41.2508C190.927 41.2508 190.971 41.339 190.971 41.5154C190.971 41.6918 190.927 41.78 190.839 41.78H186.473C184.944 41.78 183.974 41.7065 183.562 41.5595C183.18 41.3831 182.474 40.5305 181.445 39.0017C180.446 37.4729 179.476 36.1058 178.535 34.9004L172.493 26.9625L170.817 28.5942V38.2079C170.817 39.2075 170.862 39.8984 170.95 40.2806C171.038 40.6334 171.273 40.8833 171.655 41.0303C172.067 41.1773 172.787 41.2508 173.816 41.2508C173.875 41.2508 173.904 41.339 173.904 41.5154C173.904 41.6918 173.875 41.78 173.816 41.78C172.905 41.78 172.214 41.7653 171.743 41.7359L168.612 41.6918L165.614 41.7359C165.084 41.7653 164.364 41.78 163.453 41.78C163.394 41.78 163.365 41.6918 163.365 41.5154C163.365 41.339 163.394 41.2508 163.453 41.2508C164.394 41.2508 165.084 41.1773 165.525 41.0303C165.966 40.8833 166.26 40.604 166.407 40.1924C166.584 39.7514 166.672 39.0899 166.672 38.2079V17.7898C166.672 16.9078 166.584 16.261 166.407 15.8494C166.26 15.4378 165.966 15.1585 165.525 15.0115C165.114 14.8351 164.467 14.7469 163.585 14.7469C163.497 14.7469 163.453 14.6587 163.453 14.4823C163.453 14.3059 163.497 14.2177 163.585 14.2177L165.614 14.2618C166.907 14.3206 167.936 14.35 168.701 14.35C169.494 14.35 170.538 14.3206 171.832 14.2618L174.037 14.2177C174.095 14.2177 174.125 14.3059 174.125 14.4823C174.125 14.6587 174.095 14.7469 174.037 14.7469C173.096 14.7469 172.405 14.8351 171.964 15.0115C171.523 15.1879 171.229 15.4819 171.082 15.8935C170.935 16.3051 170.847 16.9666 170.817 17.878V27.3594L179.726 18.3631C180.519 17.5105 180.916 16.7755 180.916 16.1581C180.916 15.7171 180.71 15.379 180.299 15.1438C179.917 14.8792 179.358 14.7469 178.623 14.7469C178.505 14.7469 178.447 14.6587 178.447 14.4823C178.447 14.3059 178.491 14.2177 178.579 14.2177L180.784 14.2618C182.313 14.3206 183.533 14.35 184.444 14.35C185.385 14.35 186.385 14.3206 187.443 14.2618L189.075 14.2177C189.163 14.2177 189.207 14.3059 189.207 14.4823C189.207 14.6587 189.163 14.7469 189.075 14.7469C187.81 14.7469 186.443 15.085 184.973 15.7612C183.533 16.408 182.18 17.3635 180.916 18.6277L175.227 24.2724L181.401 32.475C183.606 35.3267 185.209 37.3259 186.208 38.4725C187.208 39.6191 188.016 40.3688 188.634 40.7216C189.251 41.0744 189.986 41.2508 190.839 41.2508Z" fill="white"/>
<path d="M215.201 42.3974C213.319 42.3974 211.864 41.78 210.835 40.5452C209.835 39.3104 209.336 37.7081 209.336 35.7383C209.336 34.9151 209.424 34.0919 209.6 33.2687C209.924 31.5342 210.541 29.976 211.452 28.5942C212.393 27.2124 213.54 26.1393 214.892 25.3749C216.245 24.5811 217.67 24.1842 219.17 24.1842C221.081 24.1842 222.551 24.7869 223.58 25.9923C224.609 27.1977 225.123 28.7853 225.123 30.7551C225.123 31.5489 225.035 32.3868 224.859 33.2687C224.506 35.1503 223.815 36.782 222.786 38.1638C221.786 39.5456 220.61 40.604 219.258 41.339C217.935 42.0446 216.583 42.3974 215.201 42.3974ZM216.7 41.2949C217.729 41.2949 218.641 40.751 219.434 39.6632C220.228 38.5754 220.802 37.0907 221.154 35.2091C221.36 34.2095 221.463 33.1511 221.463 32.034C221.463 30.0936 221.125 28.4766 220.449 27.183C219.802 25.8894 218.905 25.2426 217.759 25.2426C216.759 25.2426 215.848 25.7718 215.024 26.8302C214.231 27.8886 213.657 29.4027 213.305 31.3725C213.099 32.6073 212.996 33.6509 212.996 34.5035C212.996 36.4733 213.319 38.105 213.966 39.3986C214.642 40.6628 215.554 41.2949 216.7 41.2949Z" fill="white"/>
<path d="M243.878 9.76367C245.083 9.76367 246.024 9.99887 246.7 10.4693C247.376 10.9397 247.67 11.513 247.582 12.1891C247.494 12.7183 247.259 13.1299 246.876 13.4239C246.524 13.7179 246.097 13.8649 245.598 13.8649C244.921 13.8649 244.451 13.7032 244.186 13.3798C243.951 13.0564 243.76 12.586 243.613 11.9686C243.495 11.4983 243.363 11.1602 243.216 10.9544C243.099 10.7192 242.863 10.6016 242.511 10.6016C241.511 10.6016 240.644 11.5718 239.909 13.5121C239.203 15.4231 238.556 18.3925 237.968 22.4203L237.571 25.1103L239.424 24.978C240.894 24.8604 241.702 24.8016 241.849 24.8016C241.967 24.8016 242.055 24.8604 242.114 24.978C242.172 25.0662 242.187 25.1691 242.158 25.2867C242.07 25.5807 241.878 25.9188 241.584 26.301C241.29 26.6538 241.011 26.8155 240.747 26.7861C240.658 26.7861 240.291 26.7273 239.644 26.6097C238.997 26.4921 238.248 26.4039 237.395 26.3451L234.97 42.7061C234.558 45.5578 234.058 47.7922 233.47 49.4092C232.912 51.0262 232.191 52.1728 231.309 52.849C230.457 53.5546 229.369 53.9074 228.046 53.9074C226.87 53.9074 225.959 53.6869 225.312 53.2459C224.665 52.8049 224.4 52.261 224.518 51.6142C224.577 51.1144 224.797 50.7175 225.179 50.4235C225.532 50.1295 225.944 49.9825 226.414 49.9825C227.032 49.9825 227.458 50.1442 227.693 50.4676C227.928 50.791 228.105 51.2467 228.222 51.8347C228.311 52.2463 228.413 52.555 228.531 52.7608C228.649 52.9666 228.854 53.0695 229.148 53.0695C229.472 53.0695 229.736 52.8343 229.942 52.3639C230.148 51.9229 230.368 51.0703 230.604 49.8061C230.839 48.5713 231.162 46.5868 231.574 43.8526L233.823 28.2855C233.882 27.6387 233.911 27.2565 233.911 27.1389C233.911 26.5803 233.764 26.2422 233.47 26.1246C233.176 25.9776 232.544 25.9041 231.574 25.9041C231.486 25.9041 231.442 25.8159 231.442 25.6395C231.442 25.4043 231.486 25.2867 231.574 25.2867C232.573 25.2867 233.279 25.1544 233.691 24.8898C234.132 24.5958 234.411 24.0813 234.529 23.3463C235.117 19.7302 235.778 16.9666 236.513 15.0556C237.277 13.1152 238.233 11.7482 239.379 10.9544C240.526 10.1606 242.025 9.76367 243.878 9.76367Z" fill="white"/>
<path d="M281.583 34.9004C281.642 34.8416 281.715 34.8122 281.803 34.8122C281.891 34.8122 281.98 34.8416 282.068 34.9004C282.156 34.9298 282.185 34.9592 282.156 34.9886C281.862 36.8408 281.715 38.8841 281.715 41.1185C281.715 41.3537 281.671 41.5301 281.583 41.6477C281.495 41.7359 281.318 41.78 281.054 41.78H261.076C260.959 41.78 260.9 41.6918 260.9 41.5154C260.9 41.339 260.944 41.2508 261.032 41.2508C261.973 41.2508 262.649 41.1773 263.061 41.0303C263.502 40.8833 263.796 40.604 263.943 40.1924C264.09 39.7808 264.163 39.1193 264.163 38.2079V17.7898C264.134 16.9078 264.031 16.261 263.855 15.8494C263.708 15.4378 263.414 15.1585 262.973 15.0115C262.561 14.8351 261.914 14.7469 261.032 14.7469C260.944 14.7469 260.885 14.6587 260.856 14.4823C260.856 14.3059 260.885 14.2177 260.944 14.2177H279.819C280.054 14.2177 280.172 14.35 280.172 14.6146L280.26 20.3035C280.26 20.4211 280.172 20.4799 279.995 20.4799C279.848 20.4799 279.76 20.4358 279.731 20.3476C279.378 18.7306 278.613 17.4517 277.437 16.5109C276.291 15.5407 274.909 15.0556 273.292 15.0556H271.352C270.411 15.0556 269.735 15.1291 269.323 15.2761C268.911 15.3937 268.632 15.6436 268.485 16.0258C268.368 16.3786 268.294 16.9813 268.265 17.8339V26.8743H274.218C275.629 26.8743 276.658 26.6244 277.305 26.1246C277.952 25.6248 278.275 24.7869 278.275 23.6109C278.275 23.4933 278.364 23.4345 278.54 23.4345C278.775 23.4345 278.878 23.508 278.849 23.655C278.878 24.1842 278.878 24.6987 278.849 25.1985C278.849 25.6689 278.849 26.007 278.849 26.2128C278.819 26.4774 278.805 26.889 278.805 27.4476C278.805 28.359 278.819 29.0499 278.849 29.5203L278.893 31.8135C278.893 31.9605 278.805 32.034 278.628 32.034C278.569 32.034 278.496 32.0193 278.408 31.9899C278.349 31.9311 278.319 31.8723 278.319 31.8135C278.319 29.2851 276.908 28.0209 274.086 28.0209H268.265V38.0315C268.265 38.8547 268.338 39.4721 268.485 39.8837C268.662 40.2659 268.956 40.5305 269.367 40.6775C269.779 40.8245 270.426 40.898 271.308 40.898H273.909C275.585 40.898 277.114 40.3541 278.496 39.2663C279.878 38.1785 280.907 36.7232 281.583 34.9004Z" fill="white"/>
<path d="M289.186 41.78C289.127 41.78 289.098 41.6918 289.098 41.5154C289.098 41.339 289.127 41.2508 289.186 41.2508C290.156 41.2508 290.847 41.1773 291.258 41.0303C291.699 40.8833 291.993 40.604 292.14 40.1924C292.287 39.7808 292.361 39.1193 292.361 38.2079V17.7898C292.361 16.9078 292.273 16.261 292.096 15.8494C291.949 15.4378 291.655 15.1585 291.214 15.0115C290.803 14.8351 290.156 14.7469 289.274 14.7469C289.186 14.7469 289.142 14.6587 289.142 14.4823C289.142 14.3059 289.186 14.2177 289.274 14.2177L291.303 14.2618C292.596 14.3206 293.625 14.35 294.39 14.35C295.183 14.35 296.227 14.3206 297.521 14.2618L299.726 14.2177C299.784 14.2177 299.814 14.3059 299.814 14.4823C299.814 14.6587 299.784 14.7469 299.726 14.7469C298.755 14.7469 298.05 14.8351 297.609 15.0115C297.197 15.1585 296.918 15.4378 296.771 15.8494C296.624 16.261 296.536 16.9225 296.506 17.8339V38.0315C296.506 39.2075 296.683 39.9866 297.036 40.3688C297.388 40.7216 298.109 40.898 299.196 40.898H301.622C303.797 40.898 305.576 40.3688 306.958 39.3104C308.369 38.252 309.472 36.6497 310.265 34.5035C310.265 34.4447 310.324 34.4153 310.442 34.4153C310.53 34.4153 310.618 34.4447 310.706 34.5035C310.824 34.5329 310.883 34.577 310.883 34.6358C310.648 36.929 310.53 39.0899 310.53 41.1185C310.53 41.5595 310.295 41.78 309.824 41.78H289.186Z" fill="white"/>
<path d="M330.243 42.3092C327.509 42.3092 325.084 41.6918 322.967 40.457C320.879 39.1928 319.262 37.4876 318.116 35.3414C316.969 33.1952 316.396 30.8139 316.396 28.1973C316.396 25.4631 317.043 22.9935 318.336 20.7886C319.659 18.5836 321.453 16.8637 323.716 15.6289C325.98 14.3647 328.509 13.7326 331.302 13.7326C334.065 13.7326 336.505 14.3353 338.622 15.5407C340.768 16.7461 342.415 18.4072 343.561 20.524C344.737 22.6407 345.325 24.9927 345.325 27.5799C345.325 30.4905 344.634 33.0629 343.253 35.2973C341.871 37.5317 340.033 39.2663 337.74 40.5011C335.447 41.7065 332.948 42.3092 330.243 42.3092ZM332.14 41.1626C333.904 41.1626 335.447 40.7069 336.77 39.7955C338.122 38.8547 339.151 37.5464 339.857 35.8706C340.592 34.1654 340.959 32.181 340.959 29.9172C340.959 27.2124 340.474 24.7134 339.504 22.4203C338.563 20.0977 337.226 18.2455 335.491 16.8637C333.786 15.4819 331.846 14.791 329.67 14.791C327.906 14.791 326.348 15.2467 324.995 16.1581C323.643 17.0695 322.585 18.3778 321.82 20.083C321.085 21.7588 320.718 23.7432 320.718 26.0364C320.718 28.7118 321.203 31.2108 322.173 33.5333C323.143 35.8265 324.496 37.6787 326.23 39.0899C327.965 40.4717 329.935 41.1626 332.14 41.1626Z" fill="white"/>
<path d="M403.421 49.4533C403.509 49.4533 403.583 49.5121 403.641 49.6297C403.73 49.7473 403.744 49.8355 403.686 49.8943C402.833 50.9821 401.848 51.7906 400.731 52.3198C399.614 52.8784 398.261 53.1577 396.674 53.1577C394.616 53.1577 392.352 52.8931 389.882 52.3639C387.442 51.8641 384.326 51.0997 380.533 50.0707C377.182 49.1593 374.448 48.4684 372.331 47.998C370.214 47.557 368.347 47.3365 366.73 47.3365C365.26 47.3365 364.099 47.5423 363.246 47.9539L363.158 47.998C363.07 47.998 362.967 47.8951 362.849 47.6893C362.761 47.5129 362.761 47.41 362.849 47.3806L371.228 41.5154C369.641 42.0446 367.95 42.3092 366.157 42.3092C363.423 42.3092 360.997 41.6918 358.88 40.457C356.793 39.1928 355.176 37.4876 354.029 35.3414C352.883 33.1952 352.31 30.8139 352.31 28.1973C352.31 25.4631 352.956 22.9935 354.25 20.7886C355.573 18.5836 357.366 16.8637 359.63 15.6289C361.894 14.3647 364.422 13.7326 367.215 13.7326C369.979 13.7326 372.419 14.3353 374.536 15.5407C376.682 16.7461 378.328 18.4072 379.475 20.524C380.651 22.6407 381.239 24.9927 381.239 27.5799C381.239 30.1377 380.71 32.4456 379.651 34.5035C378.593 36.5321 377.123 38.2079 375.241 39.5309L367.392 45.2638C368.156 45.0286 368.979 44.911 369.861 44.911C371.449 44.911 373.11 45.1021 374.844 45.4843C376.608 45.8959 379.078 46.5427 382.253 47.4247C385.869 48.4831 388.956 49.2769 391.514 49.8061C394.072 50.3647 396.644 50.644 399.232 50.644C400.29 50.644 401.098 50.5558 401.657 50.3794C402.245 50.203 402.804 49.909 403.333 49.4974L403.421 49.4533ZM356.631 26.0364C356.631 28.7118 357.116 31.2108 358.087 33.5333C359.057 35.8265 360.409 37.6787 362.144 39.0899C363.878 40.4717 365.848 41.1626 368.053 41.1626C369.817 41.1626 371.361 40.7069 372.684 39.7955C374.036 38.8547 375.065 37.5464 375.771 35.8706C376.505 34.1654 376.873 32.181 376.873 29.9172C376.873 27.2124 376.388 24.7134 375.418 22.4203C374.477 20.0977 373.139 18.2455 371.405 16.8637C369.699 15.4819 367.759 14.791 365.584 14.791C363.82 14.791 362.261 15.2467 360.909 16.1581C359.557 17.0695 358.498 18.3778 357.734 20.083C356.999 21.7588 356.631 23.7432 356.631 26.0364Z" fill="white"/>
<path d="M418.696 41.2508C418.784 41.2508 418.828 41.339 418.828 41.5154C418.828 41.6918 418.784 41.78 418.696 41.78L414.551 41.7359L411.508 41.78C411.184 41.78 410.979 41.7359 410.89 41.6477C410.832 41.5595 410.802 41.3243 410.802 40.9421V38.6489C409.303 39.9425 407.818 40.8833 406.348 41.4713C404.907 42.0299 403.335 42.3092 401.629 42.3092C399.601 42.3092 397.778 41.9564 396.161 41.2508C394.544 40.5452 393.28 39.5309 392.368 38.2079C391.457 36.8849 391.001 35.3414 391.001 33.5774V17.7898C391.001 16.9078 390.913 16.261 390.737 15.8494C390.59 15.4378 390.296 15.1585 389.855 15.0115C389.443 14.8351 388.782 14.7469 387.87 14.7469C387.782 14.7469 387.738 14.6587 387.738 14.4823C387.738 14.3059 387.782 14.2177 387.87 14.2177L389.943 14.2618C391.178 14.3206 392.192 14.35 392.986 14.35C393.78 14.35 394.823 14.3206 396.117 14.2618L398.234 14.2177C398.351 14.2177 398.41 14.3059 398.41 14.4823C398.44 14.6587 398.41 14.7469 398.322 14.7469C397.381 14.7469 396.69 14.8351 396.249 15.0115C395.808 15.1879 395.514 15.4966 395.367 15.9376C395.22 16.3492 395.132 16.996 395.103 17.878V32.034C395.073 34.7975 395.764 36.9584 397.175 38.5166C398.587 40.0454 400.556 40.8098 403.085 40.8098C404.466 40.8098 405.76 40.5599 406.965 40.0601C408.171 39.5603 409.45 38.7077 410.802 37.5023L410.758 17.878C410.787 16.996 410.714 16.3492 410.538 15.9376C410.391 15.4966 410.096 15.1879 409.655 15.0115C409.215 14.8351 408.553 14.7469 407.671 14.7469C407.583 14.7469 407.539 14.6587 407.539 14.4823C407.539 14.3059 407.568 14.2177 407.627 14.2177L409.788 14.2618C411.023 14.3206 412.037 14.35 412.831 14.35C413.566 14.35 414.58 14.3206 415.874 14.2618L418.034 14.2177C418.152 14.2177 418.211 14.3059 418.211 14.4823C418.24 14.6587 418.211 14.7469 418.123 14.7469C417.182 14.7469 416.491 14.8351 416.05 15.0115C415.609 15.1585 415.3 15.4378 415.124 15.8494C414.977 16.261 414.903 16.9078 414.903 17.7898V38.2079C414.903 39.0899 414.992 39.7514 415.168 40.1924C415.344 40.604 415.697 40.8833 416.226 41.0303C416.756 41.1773 417.579 41.2508 418.696 41.2508Z" fill="white"/>
<path d="M446.681 34.9004C446.739 34.8416 446.813 34.8122 446.901 34.8122C446.989 34.8122 447.077 34.8416 447.166 34.9004C447.254 34.9298 447.283 34.9592 447.254 34.9886C446.96 36.8408 446.813 38.8841 446.813 41.1185C446.813 41.3537 446.769 41.5301 446.681 41.6477C446.592 41.7359 446.416 41.78 446.151 41.78H426.174C426.057 41.78 425.998 41.6918 425.998 41.5154C425.998 41.339 426.042 41.2508 426.13 41.2508C427.071 41.2508 427.747 41.1773 428.159 41.0303C428.6 40.8833 428.894 40.604 429.041 40.1924C429.188 39.7808 429.261 39.1193 429.261 38.2079V17.7898C429.232 16.9078 429.129 16.261 428.953 15.8494C428.806 15.4378 428.512 15.1585 428.071 15.0115C427.659 14.8351 427.012 14.7469 426.13 14.7469C426.042 14.7469 425.983 14.6587 425.954 14.4823C425.954 14.3059 425.983 14.2177 426.042 14.2177H444.917C445.152 14.2177 445.269 14.35 445.269 14.6146L445.358 20.3035C445.358 20.4211 445.269 20.4799 445.093 20.4799C444.946 20.4799 444.858 20.4358 444.828 20.3476C444.476 18.7306 443.711 17.4517 442.535 16.5109C441.389 15.5407 440.007 15.0556 438.39 15.0556H436.449C435.509 15.0556 434.832 15.1291 434.421 15.2761C434.009 15.3937 433.73 15.6436 433.583 16.0258C433.465 16.3786 433.392 16.9813 433.362 17.8339V26.8743H439.316C440.727 26.8743 441.756 26.6244 442.403 26.1246C443.05 25.6248 443.373 24.7869 443.373 23.6109C443.373 23.4933 443.461 23.4345 443.638 23.4345C443.873 23.4345 443.976 23.508 443.946 23.655C443.976 24.1842 443.976 24.6987 443.946 25.1985C443.946 25.6689 443.946 26.007 443.946 26.2128C443.917 26.4774 443.902 26.889 443.902 27.4476C443.902 28.359 443.917 29.0499 443.946 29.5203L443.99 31.8135C443.99 31.9605 443.902 32.034 443.726 32.034C443.667 32.034 443.594 32.0193 443.505 31.9899C443.447 31.9311 443.417 31.8723 443.417 31.8135C443.417 29.2851 442.006 28.0209 439.184 28.0209H433.362V38.0315C433.362 38.8547 433.436 39.4721 433.583 39.8837C433.759 40.2659 434.053 40.5305 434.465 40.6775C434.877 40.8245 435.523 40.898 436.405 40.898H439.007C440.683 40.898 442.212 40.3541 443.594 39.2663C444.975 38.1785 446.004 36.7232 446.681 34.9004Z" fill="white"/>
<path d="M482.596 14.2177C482.684 14.2177 482.728 14.3059 482.728 14.4823C482.728 14.6587 482.684 14.7469 482.596 14.7469C481.39 14.7469 480.449 15.1438 479.773 15.9376C479.097 16.702 478.759 17.7898 478.759 19.201L478.715 42.1328C478.715 42.221 478.641 42.2798 478.494 42.3092C478.347 42.368 478.2 42.3974 478.053 42.3974C477.818 42.3974 477.656 42.3386 477.568 42.221L458.914 18.4954L458.87 36.7967C458.87 38.2373 459.193 39.3398 459.84 40.1042C460.487 40.8686 461.413 41.2508 462.618 41.2508C462.736 41.2508 462.795 41.339 462.795 41.5154C462.795 41.6918 462.736 41.78 462.618 41.78C461.854 41.78 461.266 41.7653 460.854 41.7359L458.253 41.6918L455.783 41.7359C455.313 41.7653 454.651 41.78 453.798 41.78C453.681 41.78 453.622 41.6918 453.622 41.5154C453.622 41.339 453.681 41.2508 453.798 41.2508C455.004 41.2508 455.945 40.8686 456.621 40.1042C457.297 39.3398 457.635 38.2373 457.635 36.7967L457.679 16.996C456.944 16.1728 456.253 15.5995 455.607 15.2761C454.96 14.9233 454.313 14.7469 453.666 14.7469C453.578 14.7469 453.534 14.6587 453.534 14.4823C453.534 14.3059 453.578 14.2177 453.666 14.2177L455.783 14.2618C456.224 14.2912 456.812 14.3059 457.547 14.3059C458.253 14.3059 458.841 14.2912 459.311 14.2618C459.811 14.2324 460.149 14.2177 460.325 14.2177C460.56 14.2177 460.737 14.2765 460.854 14.3941C460.972 14.5117 461.134 14.7322 461.34 15.0556C461.663 15.5848 462.001 16.0699 462.354 16.5109L477.48 35.7824L477.524 19.201C477.553 17.7604 477.245 16.6579 476.598 15.8935C475.951 15.1291 475.01 14.7469 473.776 14.7469C473.658 14.7469 473.599 14.6587 473.599 14.4823C473.599 14.3059 473.658 14.2177 473.776 14.2177L475.407 14.2618C476.466 14.3206 477.377 14.35 478.141 14.35C478.729 14.35 479.553 14.3206 480.611 14.2618L482.596 14.2177Z" fill="white"/>
<path d="M504.116 42.3092C500.559 42.3092 497.634 41.6036 495.341 40.1924C493.047 38.7812 491.386 36.9878 490.357 34.8122C489.328 32.6073 488.814 30.2994 488.814 27.8886C488.814 25.0368 489.52 22.5378 490.931 20.3917C492.371 18.2455 494.268 16.5991 496.62 15.4525C498.971 14.3059 501.5 13.7326 504.205 13.7326C505.586 13.7326 507.012 13.8649 508.482 14.1295C509.952 14.3941 511.128 14.7175 512.01 15.0997C512.245 15.2467 512.392 15.379 512.451 15.4966C512.539 15.6142 512.584 15.82 512.584 16.114L512.936 21.7147C512.936 21.8029 512.863 21.847 512.716 21.847C512.598 21.847 512.51 21.8029 512.451 21.7147C511.51 19.4803 510.187 17.7751 508.482 16.5991C506.777 15.4231 504.793 14.8351 502.529 14.8351C499.589 14.8351 497.31 15.8788 495.693 17.9662C494.106 20.0242 493.312 22.8759 493.312 26.5215C493.312 29.1969 493.797 31.6959 494.767 34.0184C495.738 36.3116 497.061 38.1344 498.736 39.4868C500.412 40.8392 502.25 41.5154 504.249 41.5154C507.6 41.5154 510.452 39.2516 512.804 34.724C512.863 34.6064 512.951 34.5623 513.069 34.5917C513.216 34.6211 513.289 34.6946 513.289 34.8122L512.98 39.8396C512.922 40.2218 512.848 40.4717 512.76 40.5893C512.701 40.6775 512.554 40.7657 512.319 40.8539C509.644 41.8241 506.909 42.3092 504.116 42.3092Z" fill="white"/>
<path d="M541.415 34.9004C541.474 34.8416 541.548 34.8122 541.636 34.8122C541.724 34.8122 541.812 34.8416 541.9 34.9004C541.989 34.9298 542.018 34.9592 541.989 34.9886C541.695 36.8408 541.548 38.8841 541.548 41.1185C541.548 41.3537 541.504 41.5301 541.415 41.6477C541.327 41.7359 541.151 41.78 540.886 41.78H520.909C520.791 41.78 520.733 41.6918 520.733 41.5154C520.733 41.339 520.777 41.2508 520.865 41.2508C521.806 41.2508 522.482 41.1773 522.894 41.0303C523.335 40.8833 523.629 40.604 523.776 40.1924C523.923 39.7808 523.996 39.1193 523.996 38.2079V17.7898C523.967 16.9078 523.864 16.261 523.687 15.8494C523.54 15.4378 523.246 15.1585 522.805 15.0115C522.394 14.8351 521.747 14.7469 520.865 14.7469C520.777 14.7469 520.718 14.6587 520.689 14.4823C520.689 14.3059 520.718 14.2177 520.777 14.2177H539.651C539.887 14.2177 540.004 14.35 540.004 14.6146L540.092 20.3035C540.092 20.4211 540.004 20.4799 539.828 20.4799C539.681 20.4799 539.593 20.4358 539.563 20.3476C539.21 18.7306 538.446 17.4517 537.27 16.5109C536.123 15.5407 534.742 15.0556 533.125 15.0556H531.184C530.243 15.0556 529.567 15.1291 529.156 15.2761C528.744 15.3937 528.465 15.6436 528.318 16.0258C528.2 16.3786 528.127 16.9813 528.097 17.8339V26.8743H534.051C535.462 26.8743 536.491 26.6244 537.138 26.1246C537.785 25.6248 538.108 24.7869 538.108 23.6109C538.108 23.4933 538.196 23.4345 538.372 23.4345C538.608 23.4345 538.711 23.508 538.681 23.655C538.711 24.1842 538.711 24.6987 538.681 25.1985C538.681 25.6689 538.681 26.007 538.681 26.2128C538.652 26.4774 538.637 26.889 538.637 27.4476C538.637 28.359 538.652 29.0499 538.681 29.5203L538.725 31.8135C538.725 31.9605 538.637 32.034 538.461 32.034C538.402 32.034 538.328 32.0193 538.24 31.9899C538.181 31.9311 538.152 31.8723 538.152 31.8135C538.152 29.2851 536.741 28.0209 533.918 28.0209H528.097V38.0315C528.097 38.8547 528.171 39.4721 528.318 39.8837C528.494 40.2659 528.788 40.5305 529.2 40.6775C529.611 40.8245 530.258 40.898 531.14 40.898H533.742C535.418 40.898 536.947 40.3541 538.328 39.2663C539.71 38.1785 540.739 36.7232 541.415 34.9004Z" fill="white"/>
</svg>
